<svg width="24" height="25" viewBox="0 0 24 25" fill="none" xmlns="http://www.w3.org/2000/svg">
<path d="M16.0002 23.2498H8.00023C3.38023 23.2498 2.52023 21.0998 2.30023 19.0098L1.55023 10.9998C1.44023 9.94977 1.41023 8.39977 2.45023 7.23977C3.35023 6.23977 4.84023 5.75977 7.00023 5.75977H17.0002C19.1702 5.75977 20.6602 6.24977 21.5502 7.23977C22.5902 8.39977 22.5602 9.94977 22.4502 11.0098L21.7002 18.9998C21.4802 21.0998 20.6202 23.2498 16.0002 23.2498ZM7.00023 7.24977C5.31023 7.24977 4.15023 7.57977 3.56023 8.23977C3.07023 8.77977 2.91023 9.60977 3.04023 10.8498L3.79023 18.8598C3.96023 20.4398 4.39023 21.7498 8.00023 21.7498H16.0002C19.6002 21.7498 20.0402 20.4398 20.2102 18.8498L20.9602 10.8598C21.0902 9.60977 20.9302 8.77977 20.4402 8.23977C19.8502 7.57977 18.6902 7.24977 17.0002 7.24977H7.00023Z" fill="#3B82F6"/>
<path d="M16 7.25C15.59 7.25 15.25 6.91 15.25 6.5V5.7C15.25 3.92 15.25 3.25 12.8 3.25H11.2C8.75 3.25 8.75 3.92 8.75 5.7V6.5C8.75 6.91 8.41 7.25 8 7.25C7.59 7.25 7.25 6.91 7.25 6.5V5.7C7.25 3.94 7.25 1.75 11.2 1.75H12.8C16.75 1.75 16.75 3.94 16.75 5.7V6.5C16.75 6.91 16.41 7.25 16 7.25Z" fill="#3B82F6"/>
<path d="M12 17.25C9.25 17.25 9.25 15.55 9.25 14.53V13.5C9.25 12.09 9.59 11.75 11 11.75H13C14.41 11.75 14.75 12.09 14.75 13.5V14.5C14.75 15.54 14.75 17.25 12 17.25ZM10.75 13.25C10.75 13.33 10.75 13.42 10.75 13.5V14.53C10.75 15.56 10.75 15.75 12 15.75C13.25 15.75 13.25 15.59 13.25 14.52V13.5C13.25 13.42 13.25 13.33 13.25 13.25C13.17 13.25 13.08 13.25 13 13.25H11C10.92 13.25 10.83 13.25 10.75 13.25Z" fill="#3B82F6"/>
<path d="M13.9995 15.2702C13.6295 15.2702 13.2995 14.9902 13.2595 14.6102C13.2095 14.2002 13.4995 13.8202 13.9095 13.7702C16.5495 13.4402 19.0795 12.4402 21.2095 10.8902C21.5395 10.6402 22.0095 10.7202 22.2595 11.0602C22.4995 11.3902 22.4295 11.8602 22.0895 12.1102C19.7495 13.8102 16.9895 14.9002 14.0895 15.2702C14.0595 15.2702 14.0295 15.2702 13.9995 15.2702Z" fill="#3B82F6"/>
<path d="M10.0007 15.2799C9.97072 15.2799 9.94072 15.2799 9.91072 15.2799C7.17072 14.9699 4.50072 13.9699 2.19072 12.3899C1.85072 12.1599 1.76072 11.6899 1.99072 11.3499C2.22072 11.0099 2.69072 10.9199 3.03072 11.1499C5.14072 12.5899 7.57072 13.4999 10.0707 13.7899C10.4807 13.8399 10.7807 14.2099 10.7307 14.6199C10.7007 14.9999 10.3807 15.2799 10.0007 15.2799Z" fill="#3B82F6"/>
</svg>
